<?xml version="1.0" encoding="utf-8"?>
<!-- Generator: Adobe Illustrator 16.0.0, SVG Export Plug-In . SVG Version: 6.00 Build 0)  -->
<!DOCTYPE svg PUBLIC "-//W3C//DTD SVG 1.1//EN" "http://www.w3.org/Graphics/SVG/1.1/DTD/svg11.dtd">
<svg version="1.1" id="Layer_1" xmlns="http://www.w3.org/2000/svg" xmlns:xlink="http://www.w3.org/1999/xlink" x="0px" y="0px"
	 width="28px" height="28px" viewBox="0 0 28 28" enable-background="new 0 0 28 28" xml:space="preserve">
<path d="M23.746,11.646c-0.002-0.023-0.007-0.046-0.014-0.068c-0.005-0.02-0.012-0.039-0.02-0.057
	c-0.009-0.018-0.02-0.035-0.033-0.051c-0.013-0.019-0.027-0.036-0.044-0.052c-0.005-0.004-0.008-0.011-0.013-0.016l-3.207-2.49
	v-2.58c0-0.553-0.447-1-1-1h-3.611l-1.447-1.123c-0.357-0.278-0.858-0.278-1.216,0l-1.447,1.123H8.083c-0.552,0-1,0.448-1,1v2.58
	l-3.205,2.49c-0.005,0.005-0.008,0.011-0.013,0.016c-0.017,0.015-0.031,0.033-0.044,0.051c-0.013,0.016-0.024,0.033-0.033,0.051
	c-0.008,0.019-0.014,0.038-0.019,0.057c-0.007,0.022-0.011,0.044-0.014,0.067c0,0.007-0.004,0.013-0.004,0.02V23
	c0,0.212,0.069,0.418,0.196,0.588c0.002,0.004,0.002,0.007,0.004,0.01c0.002,0.002,0.007,0.006,0.011,0.01
	C4.148,23.854,4.439,23.998,4.749,24H22.75c0.311-0.001,0.604-0.146,0.791-0.395c0.002-0.004,0.006-0.005,0.009-0.008
	c0.003-0.004,0.003-0.006,0.005-0.01c0.127-0.17,0.195-0.376,0.195-0.588V11.666C23.75,11.659,23.746,11.653,23.746,11.646z
	 M13.549,4.735c0.117-0.093,0.281-0.093,0.398,0l0.77,0.597h-1.934L13.549,4.735z M4.833,23.333l8.716-6.771
	c0.117-0.092,0.281-0.092,0.398,0l8.719,6.771H4.833z M23.084,22.813l-8.727-6.776c-0.357-0.279-0.858-0.279-1.216,0l-8.726,6.776
	v-10.64l5.463,4.242c0.146,0.112,0.355,0.086,0.468-0.06s0.086-0.354-0.059-0.468l-5.55-4.31l2.345-1.822v2.576
	c0,0.184,0.149,0.333,0.333,0.333s0.333-0.149,0.333-0.333v-6c0-0.184,0.149-0.333,0.333-0.333h11.333
	c0.185,0,0.334,0.149,0.334,0.333v6c0,0.184,0.148,0.333,0.333,0.333s0.333-0.149,0.333-0.333V9.757l2.346,1.822l-5.56,4.317
	c-0.096,0.072-0.146,0.19-0.129,0.31c0.016,0.118,0.095,0.22,0.206,0.265s0.238,0.027,0.332-0.048l5.472-4.249L23.084,22.813
	L23.084,22.813z"/>
<g>
	<path d="M15.365,14.232c-0.578,0.305-1.166,0.42-1.869,0.42c-1.722,0-3.181-1.26-3.181-3.275c0-2.163,1.501-4.031,3.832-4.031
		c1.827,0,3.055,1.281,3.055,3.034c0,1.574-0.882,2.498-1.869,2.498c-0.42,0-0.808-0.283-0.776-0.924h-0.042
		c-0.368,0.62-0.851,0.924-1.48,0.924c-0.609,0-1.134-0.493-1.134-1.322c0-1.302,1.029-2.488,2.488-2.488
		c0.451,0,0.85,0.095,1.123,0.221l-0.357,1.9c-0.157,0.798-0.031,1.166,0.315,1.176c0.535,0.01,1.134-0.704,1.134-1.921
		c0-1.522-0.913-2.614-2.541-2.614c-1.711,0-3.149,1.354-3.149,3.485c0,1.753,1.144,2.834,2.698,2.834
		c0.599,0,1.155-0.126,1.586-0.367L15.365,14.232z M14.787,9.697c-0.104-0.031-0.283-0.073-0.524-0.073
		c-0.924,0-1.669,0.871-1.669,1.89c0,0.462,0.231,0.798,0.693,0.798c0.609,0,1.165-0.777,1.28-1.428L14.787,9.697z"/>
</g>
</svg>
