<?xml version="1.0" encoding="utf-8"?>
<!-- Generator: Adobe Illustrator 16.0.0, SVG Export Plug-In . SVG Version: 6.00 Build 0)  -->
<!DOCTYPE svg PUBLIC "-//W3C//DTD SVG 1.1//EN" "http://www.w3.org/Graphics/SVG/1.1/DTD/svg11.dtd">
<svg version="1.1" id="Layer_1" xmlns="http://www.w3.org/2000/svg" xmlns:xlink="http://www.w3.org/1999/xlink" x="0px" y="0px"
	 width="28px" height="28px" viewBox="0 0 28 28" enable-background="new 0 0 28 28" xml:space="preserve">
<path opacity="0.5" fill-rule="evenodd" clip-rule="evenodd" d="M13.879,3.257C7.681,3.311,2.689,8.429,2.762,14.656
	c0.072,6.073,5.134,11.079,11.21,11.087c6.164,0.008,11.305-5.15,11.266-11.305C25.199,8.236,20.086,3.203,13.879,3.257z
	 M21.372,21.453c-0.227-0.03-0.313-0.024-0.385-0.054c-4.673-1.936-4.673-1.936-2.807-6.61c0.198-0.498,0.338-1,0.433-1.5
	c0.283-0.624,0.449-1.311,0.449-2.04c0-2.362-1.664-4.331-3.895-4.853c-0.03-0.01-0.061-0.019-0.091-0.028
	c-0.024-0.005-0.048-0.014-0.073-0.019c-1.91-0.562-3.728,0.066-4.679,1.478C9.471,8.724,8.938,9.922,8.938,11.25
	c0,1.31,0.521,2.493,1.356,3.384c0.194,0.734,0.419,1.455,0.718,2.132c0.858,1.941,0.543,2.896-1.333,3.567
	c-0.994,0.356-1.972,0.757-2.931,1.128C2.83,17.727,2.721,11.572,6.462,7.538c3.829-4.131,10.193-4.428,14.39-0.672
	C25.122,10.688,25.384,16.946,21.372,21.453z"/>
</svg>
