<?xml version="1.0" encoding="utf-8"?>
<!-- Generator: Adobe Illustrator 16.0.0, SVG Export Plug-In . SVG Version: 6.00 Build 0)  -->
<!DOCTYPE svg PUBLIC "-//W3C//DTD SVG 1.1//EN" "http://www.w3.org/Graphics/SVG/1.1/DTD/svg11.dtd">
<svg version="1.1" id="Layer_1" xmlns="http://www.w3.org/2000/svg" xmlns:xlink="http://www.w3.org/1999/xlink" x="0px" y="0px"
	 width="28px" height="28px" viewBox="0 0 28 28" enable-background="new 0 0 28 28" xml:space="preserve">
<path opacity="0.5" d="M8.847,14.019c0-2.755,0.032-5.511-0.015-8.265c-0.021-1.212,0.867-2.015,2.011-1.991
	c2.532,0.053,5.066,0.015,7.599,0.017c1.254,0.001,1.947,0.682,1.947,1.927c0.002,5.542,0.002,11.084,0,16.626
	c-0.002,1.214-0.701,1.899-1.924,1.901c-2.564,0.004-5.13,0.004-7.695,0c-1.223-0.002-1.919-0.688-1.921-1.901
	C8.843,19.561,8.847,16.79,8.847,14.019z M9.743,19.779c3.274,0,6.509,0,9.75,0c0-3.868,0-7.695,0-11.552c-3.257,0-6.493,0-9.75,0
	C9.743,12.085,9.743,15.912,9.743,19.779z M9.728,20.713c0,0.652-0.021,1.282,0.007,1.909c0.019,0.407,0.404,0.739,0.847,0.742
	c2.689,0.008,5.376,0.006,8.066,0c0.431,0,0.781-0.247,0.824-0.646c0.07-0.663,0.02-1.34,0.02-2.005
	C16.213,20.713,12.992,20.713,9.728,20.713z M19.507,7.302c0-0.656,0.022-1.286-0.008-1.914c-0.021-0.409-0.406-0.736-0.851-0.737
	c-2.689-0.008-5.377-0.008-8.066,0c-0.445,0.001-0.828,0.332-0.847,0.742C9.707,6.021,9.728,6.65,9.728,7.302
	C12.992,7.302,16.214,7.302,19.507,7.302z"/>
<path opacity="0.5" d="M11.967,14.441c-0.88,0-0.913-0.032-0.913-0.889c0-0.838,0.024-0.861,0.889-0.861
	c0.871,0,0.891,0.02,0.891,0.907C12.832,14.382,12.772,14.441,11.967,14.441z"/>
<path opacity="0.5" d="M17.27,14.441c-0.815,0-0.867-0.052-0.867-0.89c0-0.841,0.021-0.86,0.938-0.859
	c0.823,0,0.843,0.022,0.843,0.955C18.182,14.389,18.121,14.441,17.27,14.441z"/>
<path opacity="0.5" d="M14.6,14.441c-0.825,0-0.875-0.053-0.875-0.886c0-0.849,0.017-0.864,0.937-0.864
	c0.831,0,0.853,0.023,0.853,0.901C15.512,14.389,15.455,14.441,14.6,14.441z"/>
<path opacity="0.5" d="M14.614,21.159c0.485,0,0.885,0.381,0.893,0.854c0.007,0.5-0.401,0.896-0.909,0.887
	c-0.489-0.012-0.872-0.399-0.869-0.883C13.733,21.546,14.131,21.161,14.614,21.159z"/>
</svg>
