<?xml version="1.0" encoding="utf-8"?>
<!-- Generator: Adobe Illustrator 16.0.0, SVG Export Plug-In . SVG Version: 6.00 Build 0)  -->
<!DOCTYPE svg PUBLIC "-//W3C//DTD SVG 1.1//EN" "http://www.w3.org/Graphics/SVG/1.1/DTD/svg11.dtd">
<svg version="1.1" id="Layer_1" xmlns="http://www.w3.org/2000/svg" xmlns:xlink="http://www.w3.org/1999/xlink" x="0px" y="0px"
	 width="28px" height="28px" viewBox="0 0 28 28" enable-background="new 0 0 28 28" xml:space="preserve">
<path d="M23.371,11.792c-0.001-0.021-0.006-0.043-0.014-0.063c-0.003-0.018-0.01-0.036-0.017-0.053
	c-0.009-0.018-0.02-0.033-0.031-0.048c-0.012-0.018-0.026-0.034-0.042-0.049c-0.005-0.004-0.007-0.01-0.012-0.015L20.249,9.23V6.811
	c0-0.518-0.419-0.937-0.937-0.937h-3.388l-1.355-1.053c-0.335-0.261-0.805-0.261-1.14,0l-1.356,1.053H8.687
	c-0.518,0-0.938,0.419-0.938,0.937V9.23l-3.004,2.334c-0.005,0.004-0.007,0.01-0.012,0.015c-0.016,0.015-0.03,0.031-0.042,0.049
	c-0.012,0.015-0.023,0.03-0.032,0.048c-0.007,0.017-0.013,0.035-0.017,0.053c-0.007,0.021-0.011,0.042-0.013,0.063
	c0,0.007-0.004,0.012-0.004,0.019v10.626c0,0.199,0.064,0.392,0.184,0.552c0.002,0.003,0.002,0.007,0.004,0.01
	C4.815,23,4.82,23.003,4.823,23.006c0.175,0.23,0.449,0.367,0.739,0.369h16.875c0.292-0.002,0.566-0.139,0.742-0.37
	c0.003-0.004,0.007-0.004,0.009-0.007s0.002-0.007,0.005-0.01c0.117-0.16,0.183-0.353,0.183-0.552V11.812
	C23.375,11.805,23.372,11.799,23.371,11.792z M13.812,5.314c0.11-0.086,0.264-0.086,0.373,0l0.722,0.56h-1.813L13.812,5.314z
	 M5.64,22.75l8.171-6.347c0.11-0.088,0.264-0.088,0.373,0l8.174,6.347H5.64z M22.75,22.263l-8.181-6.354
	c-0.335-0.262-0.805-0.262-1.14,0l-8.181,6.354v-9.975l5.122,3.977c0.136,0.105,0.332,0.081,0.438-0.056s0.082-0.333-0.055-0.439
	l-5.203-4.04l2.198-1.708v2.415c0,0.172,0.14,0.313,0.313,0.313s0.313-0.14,0.313-0.313V6.811c0-0.173,0.14-0.313,0.313-0.313
	h10.625c0.173,0,0.313,0.14,0.313,0.313v5.625c0,0.172,0.14,0.313,0.313,0.313c0.172,0,0.312-0.14,0.312-0.313v-2.415l2.199,1.708
	l-5.212,4.047c-0.09,0.067-0.136,0.18-0.121,0.29c0.016,0.111,0.089,0.207,0.193,0.248c0.104,0.043,0.223,0.025,0.311-0.044
	l5.131-3.984V22.263L22.75,22.263z"/>
<g>
	<path d="M15.759,15.054l-0.869-1.506c-0.354-0.576-0.576-0.95-0.789-1.344h-0.02c-0.192,0.394-0.384,0.758-0.738,1.354
		l-0.819,1.496h-1.011l2.082-3.447l-2.001-3.366h1.021l0.899,1.597c0.253,0.444,0.445,0.789,0.627,1.152h0.03
		c0.192-0.404,0.364-0.717,0.616-1.152l0.931-1.597h1.01l-2.072,3.315l2.124,3.498H15.759z"/>
</g>
</svg>
