<?xml version="1.0" encoding="utf-8"?>
<!-- Generator: Adobe Illustrator 16.0.0, SVG Export Plug-In . SVG Version: 6.00 Build 0)  -->
<!DOCTYPE svg PUBLIC "-//W3C//DTD SVG 1.1//EN" "http://www.w3.org/Graphics/SVG/1.1/DTD/svg11.dtd">
<svg version="1.1" id="Layer_1" xmlns="http://www.w3.org/2000/svg" xmlns:xlink="http://www.w3.org/1999/xlink" x="0px" y="0px"
	 width="20px" height="20px" viewBox="0 0 20 20" enable-background="new 0 0 20 20" xml:space="preserve">
<path fill="#5E5F5F" d="M15.953,9.654h-5.557v1.853h3.39c-0.506,1.609-2.009,2.777-3.786,2.777c-2.192,0-3.969-1.777-3.969-3.969
	S7.808,6.346,10,6.346c1.105,0,2.102,0.451,2.822,1.178l1.344-1.461c-1.073-1.052-2.545-1.701-4.165-1.701
	c-3.288,0-5.955,2.666-5.955,5.954c0,3.289,2.667,5.954,5.955,5.954c2.879,0,5.401-2.045,5.953-4.763L15.953,9.654L15.953,9.654
	L15.953,9.654z"/>
</svg>
