<?xml version="1.0" encoding="utf-8"?>
<!-- Generator: Adobe Illustrator 16.0.0, SVG Export Plug-In . SVG Version: 6.00 Build 0)  -->
<!DOCTYPE svg PUBLIC "-//W3C//DTD SVG 1.1//EN" "http://www.w3.org/Graphics/SVG/1.1/DTD/svg11.dtd">
<svg version="1.1" id="Layer_1" xmlns="http://www.w3.org/2000/svg" xmlns:xlink="http://www.w3.org/1999/xlink" x="0px" y="0px"
	 width="28px" height="28px" viewBox="0 0 28 28" enable-background="new 0 0 28 28" xml:space="preserve">
<path opacity="0.5" d="M2,17.492c0.099-0.592,0.178-1.188,0.301-1.771c0.222-1.056,0.868-1.769,1.855-2.169
	c0.409-0.166,0.834-0.3,1.26-0.418c0.557-0.155,1.087-0.283,1.626,0.169c0.273,0.229,0.722,0.249,1.179,0.39
	c-2.982,1.497-2.955,4.29-3.083,7.068C3.92,20.507,2.8,20.186,2,19.199C2,18.63,2,18.063,2,17.492z"/>
<path opacity="0.5" d="M26,19.199c-0.79,0.972-1.902,1.289-3.2,1.585c0-0.457,0.036-0.858-0.008-1.25
	c-0.097-0.88-0.166-1.771-0.368-2.627c-0.343-1.459-1.253-2.515-2.537-3.153c0.531-0.261,1.069-0.529,1.612-0.787
	c0.069-0.033,0.172-0.03,0.249-0.008c0.73,0.206,1.482,0.361,2.186,0.643c1.455,0.583,1.83,1.864,1.963,3.268
	c0.029,0.313,0.068,0.629,0.104,0.942C26,18.273,26,18.736,26,19.199z"/>
<path opacity="0.5" d="M13.98,23.986c-1.914-0.112-3.802-0.238-5.608-0.916c-0.017-0.008-0.033-0.012-0.05-0.02
	c-1.83-0.705-2.116-1.07-2.04-2.984c0.038-0.969,0.162-1.946,0.374-2.893c0.343-1.527,1.479-2.313,2.885-2.772
	c0.336-0.11,0.68-0.198,1.022-0.287c0.628-0.164,1.163-0.208,1.819,0.187c1.195,0.72,2.478,0.595,3.651-0.224
	c0.117-0.083,0.295-0.19,0.408-0.158c1,0.283,2.026,0.515,2.98,0.916c1.294,0.542,1.905,1.676,2.074,3.01
	c0.146,1.159,0.197,2.334,0.222,3.502c0.005,0.26-0.231,0.586-0.45,0.774c-0.996,0.862-2.221,1.246-3.488,1.442
	C16.521,23.759,15.247,23.85,13.98,23.986z"/>
<path opacity="0.5" d="M9.889,7.974c0.037-0.301,0.073-0.906,0.192-1.494c0.389-1.911,1.472-2.853,3.413-2.948
	c0.598-0.029,1.212,0.005,1.799,0.114c1.163,0.215,2.025,0.87,2.4,2.018c0.539,1.661,0.625,3.343-0.012,5.003
	c-0.703,1.839-2.207,2.886-3.976,2.777c-1.094-0.067-1.945-0.617-2.619-1.451C10.212,10.912,9.887,9.645,9.889,7.974z"/>
<path opacity="0.5" d="M9.488,4.566c-0.929,2.618-1.057,5.105,0.269,7.54c-0.847,0.692-2.224,0.638-3.223-0.142
	c-0.938-0.73-1.438-1.728-1.517-2.877C4.963,8.268,5.039,7.42,5.194,6.611c0.233-1.214,1.057-1.904,2.279-2.033
	C8.117,4.51,8.773,4.566,9.488,4.566z"/>
<path opacity="0.5" d="M18.223,12.131c1.348-2.439,1.215-4.931,0.313-7.496c1.024-0.237,2.046-0.251,2.979,0.255
	c0.411,0.223,0.846,0.613,1.019,1.031c0.71,1.717,0.778,3.461-0.228,5.107c-0.889,1.453-2.529,1.943-3.91,1.231
	C18.336,12.229,18.285,12.178,18.223,12.131z"/>
</svg>
