<?xml version="1.0" encoding="utf-8"?>
<!-- Generator: Adobe Illustrator 16.0.0, SVG Export Plug-In . SVG Version: 6.00 Build 0)  -->
<!DOCTYPE svg PUBLIC "-//W3C//DTD SVG 1.1//EN" "http://www.w3.org/Graphics/SVG/1.1/DTD/svg11.dtd">
<svg version="1.1" id="Layer_1" xmlns="http://www.w3.org/2000/svg" xmlns:xlink="http://www.w3.org/1999/xlink" x="0px" y="0px"
	 width="28px" height="28px" viewBox="0 0 28 28" enable-background="new 0 0 28 28" xml:space="preserve">
<g>
	<g>
		<path d="M20.965,11.542h-1.229V9.902c0-3.163-2.572-5.736-5.735-5.736S8.264,6.74,8.264,9.902v1.639H7.035
			c-0.227,0-0.41,0.183-0.41,0.411v10.242c0,0.904,0.735,1.639,1.639,1.639h11.471c0.904,0,1.64-0.734,1.64-1.639V11.952
			C21.375,11.725,21.191,11.542,20.965,11.542z M15.227,20.101c0.013,0.115-0.024,0.232-0.102,0.318
			c-0.078,0.087-0.189,0.138-0.307,0.138h-1.638c-0.117,0-0.228-0.051-0.306-0.138c-0.078-0.086-0.115-0.203-0.102-0.318
			l0.258-2.324c-0.42-0.306-0.671-0.788-0.671-1.318c0-0.904,0.735-1.64,1.639-1.64c0.904,0,1.64,0.735,1.64,1.64
			c0,0.53-0.252,1.013-0.671,1.318L15.227,20.101z M17.277,11.542h-6.555V9.902c0-1.807,1.47-3.277,3.278-3.277
			c1.807,0,3.277,1.471,3.277,3.277V11.542z"/>
	</g>
</g>
</svg>
