<?xml version="1.0" encoding="utf-8"?>
<!-- Generator: Adobe Illustrator 16.0.0, SVG Export Plug-In . SVG Version: 6.00 Build 0)  -->
<!DOCTYPE svg PUBLIC "-//W3C//DTD SVG 1.1//EN" "http://www.w3.org/Graphics/SVG/1.1/DTD/svg11.dtd">
<svg version="1.1" id="Layer_1" xmlns="http://www.w3.org/2000/svg" xmlns:xlink="http://www.w3.org/1999/xlink" x="0px" y="0px"
	 width="30px" height="20px" viewBox="0 0 30 20" enable-background="new 0 0 30 20" xml:space="preserve">
<g>
	<path fill="#010101" d="M4.079,9.948h1.503l1.878,5.653l1.896-5.653h1.502l1.359,8.104h-1.492l-0.868-5.118l-1.721,5.118h-1.36
		l-1.707-5.118l-0.891,5.119H2.675L4.079,9.948z"/>
	<path fill="#010101" d="M13.468,9.948h4.019v1.504H15v1.471h2.486v1.481H15v3.647h-1.532V9.948z"/>
	<path fill="#010101" d="M21.333,9.948h1.563l3.119,8.104h-1.604l-0.634-1.672h-3.307l-0.66,1.672h-1.604L21.333,9.948z
		 M22.126,12.098l-1.089,2.782h2.167L22.126,12.098z"/>
</g>
<rect x="1.25" y="13.068" fill="#5D5D5D" width="24.766" height="1.539"/>
</svg>
