<?xml version="1.0" encoding="utf-8"?>
<!-- Generator: Adobe Illustrator 16.0.0, SVG Export Plug-In . SVG Version: 6.00 Build 0)  -->
<!DOCTYPE svg PUBLIC "-//W3C//DTD SVG 1.1//EN" "http://www.w3.org/Graphics/SVG/1.1/DTD/svg11.dtd">
<svg version="1.1" id="Layer_1" xmlns="http://www.w3.org/2000/svg" xmlns:xlink="http://www.w3.org/1999/xlink" x="0px" y="0px"
	 width="28px" height="28px" viewBox="0 0 28 28" enable-background="new 0 0 28 28" xml:space="preserve">
<g>
	<path fill="#5D5E5E" d="M14.282,2.65c-4.853,0-8.787,3.934-8.787,8.787c0,4.853,3.934,8.787,8.787,8.787
		c4.853,0,8.787-3.935,8.787-8.787C23.069,6.584,19.135,2.65,14.282,2.65z M14.282,18.454c-3.875,0-7.017-3.142-7.017-7.017
		c0-3.875,3.142-7.017,7.017-7.017s7.017,3.142,7.017,7.017C21.299,15.313,18.157,18.454,14.282,18.454z"/>
	<polygon fill="#5D5E5E" points="14.254,17.256 18.749,7.175 18.588,7.103 16.414,7.103 11.887,17.256 	"/>
	<polygon fill="#5D5E5E" points="14.282,12.18 14.586,12.18 12.604,7.103 10.284,7.103 14.282,17.348 	"/>
</g>
<g>
	<path fill="#020202" d="M6.636,20.729h1.163l1.453,4.374l1.467-4.374h1.162l1.051,6.27h-1.154l-0.672-3.96l-1.332,3.96H8.722
		l-1.321-3.96L6.712,27H5.549L6.636,20.729z"/>
	<path fill="#020202" d="M13.9,20.729h3.109v1.164h-1.924v1.138h1.924v1.146h-1.924v2.821H13.9V20.729z"/>
	<path fill="#020202" d="M19.985,20.729h1.209l2.414,6.27h-1.242l-0.49-1.293h-2.558l-0.511,1.293h-1.241L19.985,20.729z
		 M20.599,22.393l-0.843,2.152h1.677L20.599,22.393z"/>
</g>
</svg>
