<?xml version="1.0" encoding="utf-8"?>
<!-- Generator: Adobe Illustrator 16.0.0, SVG Export Plug-In . SVG Version: 6.00 Build 0)  -->
<!DOCTYPE svg PUBLIC "-//W3C//DTD SVG 1.1//EN" "http://www.w3.org/Graphics/SVG/1.1/DTD/svg11.dtd">
<svg version="1.1" id="Layer_1" xmlns="http://www.w3.org/2000/svg" xmlns:xlink="http://www.w3.org/1999/xlink" x="0px" y="0px"
	 width="28px" height="28px" viewBox="0 0 28 28" enable-background="new 0 0 28 28" xml:space="preserve">
<g>
	<path fill="#020202" d="M6.636,20.729h1.163l1.453,4.374l1.467-4.374h1.162l1.051,6.27h-1.154l-0.672-3.96l-1.332,3.96H8.722
		l-1.321-3.96L6.712,27H5.549L6.636,20.729z"/>
	<path fill="#020202" d="M13.9,20.729h3.109v1.164h-1.924v1.138h1.924v1.146h-1.924v2.821H13.9V20.729z"/>
	<path fill="#020202" d="M19.985,20.729h1.209l2.414,6.27h-1.242l-0.49-1.293h-2.558l-0.511,1.293h-1.241L19.985,20.729z
		 M20.599,22.393l-0.843,2.152h1.677L20.599,22.393z"/>
</g>
<path fill="#5D5E5E" d="M21.301,9.826h-6.586v2.195h4.018c-0.599,1.909-2.382,3.293-4.488,3.293c-2.598,0-4.704-2.106-4.704-4.704
	c0-2.598,2.106-4.704,4.704-4.704c1.309,0,2.492,0.534,3.345,1.396l1.594-1.732c-1.273-1.247-3.017-2.016-4.938-2.016
	c-3.897,0-7.057,3.16-7.057,7.057s3.16,7.057,7.057,7.057c3.413,0,6.402-2.425,7.057-5.646V9.826L21.301,9.826L21.301,9.826z"/>
</svg>
