<?xml version="1.0" encoding="utf-8"?>
<!-- Generator: Adobe Illustrator 16.0.0, SVG Export Plug-In . SVG Version: 6.00 Build 0)  -->
<!DOCTYPE svg PUBLIC "-//W3C//DTD SVG 1.1//EN" "http://www.w3.org/Graphics/SVG/1.1/DTD/svg11.dtd">
<svg version="1.1" id="Layer_1" xmlns="http://www.w3.org/2000/svg" xmlns:xlink="http://www.w3.org/1999/xlink" x="0px" y="0px"
	 width="28px" height="28px" viewBox="0 0 28 28" enable-background="new 0 0 28 28" xml:space="preserve">
<g>
	<path fill="#020202" d="M6.636,20.729h1.163l1.453,4.375l1.467-4.375h1.162l1.051,6.271h-1.154l-0.672-3.96l-1.332,3.96H8.722
		l-1.321-3.96L6.712,27H5.549L6.636,20.729z"/>
	<path fill="#020202" d="M13.9,20.729h3.109v1.164h-1.924v1.139h1.924v1.146h-1.924v2.821H13.9V20.729z"/>
	<path fill="#020202" d="M19.984,20.729h1.209l2.414,6.271h-1.241l-0.49-1.293h-2.558l-0.512,1.293h-1.24L19.984,20.729z
		 M20.6,22.393l-0.844,2.152h1.678L20.6,22.393z"/>
</g>
<g>
	<path fill="#5E5E5E" d="M14.869,11.096l-0.026-0.024l2.769-2.666c0.229-0.224,0.237-0.592,0.015-0.824
		c-0.224-0.232-0.594-0.238-0.824-0.015l-2.785,2.683l-1.515-1.504c-0.229-0.226-0.596-0.225-0.824,0.004
		c-0.227,0.228-0.227,0.597,0.003,0.823l2.356,2.338L14.869,11.096z"/>
	<g>
		<path fill="#5E5E5E" d="M17.952,9.653c0.02,0.166,0.033,0.334,0.033,0.504c0,2.242-1.809,4.063-4.038,4.063
			S9.91,12.401,9.91,10.157c0-2.242,1.808-4.06,4.037-4.06c1.619,0,3.013,0.958,3.659,2.343l2.961-2.953
			C19.1,3.413,16.675,2.06,13.932,2.06c-4.482,0-8.117,3.615-8.117,8.075c0,4.461,3.635,8.074,8.117,8.074
			c4.481,0,8.117-3.613,8.117-8.074c0-1.323-0.32-2.574-0.888-3.677L17.952,9.653z"/>
	</g>
</g>
</svg>
