<?xml version="1.0" encoding="utf-8"?>
<!-- Generator: Adobe Illustrator 16.0.0, SVG Export Plug-In . SVG Version: 6.00 Build 0)  -->
<!DOCTYPE svg PUBLIC "-//W3C//DTD SVG 1.1//EN" "http://www.w3.org/Graphics/SVG/1.1/DTD/svg11.dtd">
<svg version="1.1" id="Layer_1" xmlns="http://www.w3.org/2000/svg" xmlns:xlink="http://www.w3.org/1999/xlink" x="0px" y="0px"
	 width="28px" height="28px" viewBox="0 0 28 28" enable-background="new 0 0 28 28" xml:space="preserve">
<path fill="#262626" d="M13.438,6.992v6.434h-1.289L9.231,9.017v4.409H7.943V6.992h1.289l2.918,4.418V6.992H13.438z"/>
<path fill="#262626" d="M17.694,13.49c-1.813,0-3.295-1.362-3.295-3.295c0-1.924,1.482-3.286,3.295-3.286
	c1.831,0,3.285,1.362,3.285,3.286C20.979,12.128,19.516,13.49,17.694,13.49z M17.694,12.339c1.159,0,1.96-0.838,1.96-2.145
	c0-1.307-0.801-2.126-1.96-2.126c-1.169,0-1.97,0.819-1.97,2.126C15.725,11.501,16.525,12.339,17.694,12.339z"/>
<path fill="#262626" d="M9.985,19.876H7.426L7.002,21.1H5.65l2.31-6.433h1.5l2.31,6.433h-1.362L9.985,19.876z M8.706,16.157
	l-0.93,2.688h1.859L8.706,16.157z"/>
<path fill="#262626" d="M15.005,18.634h-1.077V21.1h-1.289v-6.424h2.366c1.546,0,2.319,0.874,2.319,1.987
	C17.324,17.639,16.661,18.634,15.005,18.634z M14.949,17.593c0.728,0,1.05-0.358,1.05-0.93c0-0.589-0.322-0.938-1.05-0.938h-1.021
	v1.868H14.949z"/>
<path fill="#262626" d="M20.604,18.634h-1.076V21.1h-1.289v-6.424h2.365c1.547,0,2.32,0.874,2.32,1.987
	C22.924,17.639,22.261,18.634,20.604,18.634z M20.549,17.593c0.727,0,1.049-0.358,1.049-0.93c0-0.589-0.322-0.938-1.049-0.938
	h-1.021v1.868H20.549z"/>
</svg>
