<?xml version="1.0" encoding="utf-8"?>
<!-- Generator: Adobe Illustrator 16.0.0, SVG Export Plug-In . SVG Version: 6.00 Build 0)  -->
<!DOCTYPE svg PUBLIC "-//W3C//DTD SVG 1.1//EN" "http://www.w3.org/Graphics/SVG/1.1/DTD/svg11.dtd">
<svg version="1.1" id="Layer_1" xmlns="http://www.w3.org/2000/svg" xmlns:xlink="http://www.w3.org/1999/xlink" x="0px" y="0px"
	 width="20px" height="20px" viewBox="0 0 20 20" enable-background="new 0 0 20 20" xml:space="preserve">
<g>
	<path fill="#5E5F5F" d="M10.777,11.113l-0.022-0.021l2.296-2.209c0.189-0.187,0.197-0.492,0.013-0.684
		c-0.186-0.192-0.493-0.198-0.684-0.013l-2.309,2.225L8.814,9.164c-0.19-0.187-0.494-0.187-0.683,0.003
		C7.943,9.355,7.943,9.662,8.133,9.85l1.954,1.939L10.777,11.113z"/>
	<g>
		<path fill="#5E5F5F" d="M13.333,9.916c0.018,0.138,0.027,0.278,0.027,0.417c0,1.86-1.501,3.369-3.349,3.369
			c-1.848,0-3.347-1.508-3.347-3.369c0-1.858,1.499-3.366,3.347-3.366c1.342,0,2.498,0.794,3.033,1.942L15.5,6.461
			c-1.216-1.72-3.226-2.842-5.501-2.842c-3.716,0-6.731,2.998-6.731,6.696c0,3.699,3.015,6.694,6.731,6.694
			c3.717,0,6.731-2.995,6.731-6.694c0-1.097-0.266-2.134-0.737-3.049L13.333,9.916z"/>
	</g>
</g>
</svg>
