<?xml version="1.0" encoding="utf-8"?>
<!-- Generator: Adobe Illustrator 16.0.0, SVG Export Plug-In . SVG Version: 6.00 Build 0)  -->
<!DOCTYPE svg PUBLIC "-//W3C//DTD SVG 1.1//EN" "http://www.w3.org/Graphics/SVG/1.1/DTD/svg11.dtd">
<svg version="1.1" id="Layer_1" xmlns="http://www.w3.org/2000/svg" xmlns:xlink="http://www.w3.org/1999/xlink" x="0px" y="0px"
	 width="28px" height="28px" viewBox="0 0 28 28" enable-background="new 0 0 28 28" xml:space="preserve">
<g>
	<g>
		<g>
			<circle cx="19.089" cy="18.018" r="0.893"/>
			<path d="M23.107,18.732c0.492,0,0.893-0.4,0.893-0.894v-3.304c0-1.969-1.603-3.571-3.571-3.571h-1.073V7.815
				c0-2.892-2.402-5.244-5.357-5.244S8.641,4.924,8.641,7.815v3.149h-1.07C5.603,10.964,4,12.566,4,14.535v7.322
				c0,1.969,1.603,3.571,3.571,3.571h12.857c1.969,0,3.571-1.603,3.571-3.571c0-0.493-0.4-0.894-0.893-0.894
				c-0.493,0-0.894,0.4-0.894,0.894c0,0.984-0.801,1.785-1.785,1.785H7.571c-0.984,0-1.786-0.801-1.786-1.785v-7.322
				c0-0.984,0.801-1.785,1.786-1.785h12.857c0.984,0,1.785,0.801,1.785,1.785v3.304C22.214,18.332,22.614,18.732,23.107,18.732z
				 M17.57,10.964h-7.144V7.815c0-1.907,1.603-3.458,3.572-3.458s3.572,1.552,3.572,3.458V10.964z"/>
			<circle cx="12.348" cy="18.018" r="0.893"/>
			<circle cx="9" cy="18.018" r="0.893"/>
			<circle cx="15.696" cy="18.018" r="0.893"/>
		</g>
	</g>
</g>
</svg>
