<?xml version="1.0" encoding="utf-8"?>
<!-- Generator: Adobe Illustrator 16.0.0, SVG Export Plug-In . SVG Version: 6.00 Build 0)  -->
<!DOCTYPE svg PUBLIC "-//W3C//DTD SVG 1.1//EN" "http://www.w3.org/Graphics/SVG/1.1/DTD/svg11.dtd">
<svg version="1.1" id="Layer_1" xmlns="http://www.w3.org/2000/svg" xmlns:xlink="http://www.w3.org/1999/xlink" x="0px" y="0px"
	 width="28px" height="28px" viewBox="0 0 28 28" enable-background="new 0 0 28 28" xml:space="preserve">
<g>
	<g>
		<path fill="#010101" d="M23.371,7.476c-0.361-0.078-0.715,0.153-0.792,0.513l-0.485,2.263c-1.544-2.635-4.379-4.288-7.486-4.288
			c-4.783,0-8.675,3.892-8.675,8.676c0,0.368,0.298,0.667,0.667,0.667s0.667-0.298,0.667-0.667c0-4.048,3.293-7.341,7.34-7.341
			c2.641,0,5.047,1.41,6.351,3.654l-2.226-0.475c-0.361-0.078-0.714,0.153-0.792,0.512c-0.077,0.361,0.152,0.716,0.513,0.793
			l3.819,0.818c0.065,0.014,0.13,0.018,0.195,0.013c0.109-0.01,0.213-0.045,0.307-0.104c0.149-0.096,0.253-0.248,0.291-0.42
			l0.818-3.819C23.962,7.908,23.731,7.553,23.371,7.476z"/>
		<path fill="#010101" d="M22.698,13.766c-0.367,0.012-0.657,0.32-0.645,0.688c0.065,1.96-0.637,3.828-1.977,5.26
			c-1.341,1.432-3.159,2.256-5.117,2.319c-0.082,0.003-0.163,0.005-0.245,0.005c-2.558,0-4.913-1.329-6.243-3.479l2.32,0.621
			c0.355,0.096,0.722-0.116,0.817-0.471c0.096-0.357-0.116-0.723-0.472-0.818L7.364,16.88c-0.171-0.045-0.353-0.021-0.506,0.067
			c-0.153,0.088-0.265,0.232-0.311,0.404l-1.012,3.772c-0.096,0.357,0.116,0.723,0.472,0.817c0.058,0.016,0.116,0.023,0.173,0.023
			c0.294,0,0.563-0.196,0.644-0.496l0.569-2.121c1.582,2.491,4.336,4.025,7.321,4.025c0.097,0,0.192-0.002,0.288-0.006
			c2.317-0.077,4.465-1.051,6.049-2.742c1.583-1.691,2.414-3.9,2.338-6.216C23.376,14.042,23.067,13.752,22.698,13.766z"/>
	</g>
</g>
<path d="M18.529,14.334c0,0.347,0,0.668,0,1.008c-0.163,0-0.323,0-0.499,0c0,0.349,0,0.675,0,1.012c-0.34,0-0.665,0-1.005,0
	c0-0.33,0-0.658,0-0.995c-0.177,0-0.336,0-0.519,0c0,0.324,0,0.655,0,0.995c-0.346,0-0.672,0-1.01,0c0-0.33,0-0.658,0-0.995
	c-0.346,0-0.679,0-1.019,0c-0.023,0.149-0.041,0.308-0.077,0.46c-0.224,0.949-1.108,1.613-2.071,1.562
	c-0.975-0.053-1.791-0.787-1.899-1.759c-0.065-0.58-0.093-1.169,0.032-1.744c0.208-0.957,1.091-1.62,2.059-1.573
	c0.982,0.048,1.785,0.788,1.917,1.766c0.012,0.083,0.022,0.167,0.035,0.264C15.819,14.334,17.164,14.334,18.529,14.334z
	 M13.469,14.845c-0.006,0-0.01-0.001-0.014-0.001c0-0.175,0.003-0.35,0-0.524c-0.012-0.568-0.466-1.011-1.032-1.008
	c-0.558,0.003-1.009,0.451-1.016,1.01c-0.003,0.35-0.003,0.699,0,1.05c0.004,0.51,0.406,0.956,0.906,1.005
	c0.524,0.054,1.008-0.276,1.111-0.789C13.469,15.347,13.455,15.091,13.469,14.845z"/>
</svg>
