<?xml version="1.0" encoding="utf-8"?>
<!-- Generator: Adobe Illustrator 16.0.0, SVG Export Plug-In . SVG Version: 6.00 Build 0)  -->
<!DOCTYPE svg PUBLIC "-//W3C//DTD SVG 1.1//EN" "http://www.w3.org/Graphics/SVG/1.1/DTD/svg11.dtd">
<svg version="1.1" id="Layer_1" xmlns="http://www.w3.org/2000/svg" xmlns:xlink="http://www.w3.org/1999/xlink" x="0px" y="0px"
	 width="28px" height="28px" viewBox="0 0 28 28" enable-background="new 0 0 28 28" xml:space="preserve">
<circle cx="19.089" cy="18.018" r="0.893"/>
<circle cx="12.348" cy="18.018" r="0.893"/>
<circle cx="9" cy="18.018" r="0.893"/>
<circle cx="15.695" cy="18.018" r="0.893"/>
<path d="M23.107,18.732c0.492,0,0.893-0.4,0.893-0.895v-3.304c0-1.969-1.604-3.571-3.57-3.571h-1.074V7.815
	c0-2.892-2.401-5.244-5.356-5.244c-2.845,0-5.155,2.187-5.325,4.929h1.785c0.167-1.757,1.682-3.143,3.54-3.143
	c1.969,0,3.572,1.552,3.572,3.458v3.149H14h-3.574H8.641h-1.07C5.603,10.964,4,12.566,4,14.535v7.322c0,1.969,1.603,3.57,3.571,3.57
	h12.857c1.969,0,3.571-1.603,3.571-3.57c0-0.493-0.399-0.895-0.894-0.895c-0.492,0-0.894,0.4-0.894,0.895
	c0,0.983-0.801,1.785-1.785,1.785H7.571c-0.984,0-1.786-0.802-1.786-1.785v-7.322c0-0.984,0.801-1.785,1.786-1.785h12.857
	c0.984,0,1.785,0.801,1.785,1.785v3.304C22.214,18.332,22.614,18.732,23.107,18.732z"/>
<rect x="22.213" y="14.958" width="1.757" height="7.341"/>
</svg>
