<?xml version="1.0" encoding="utf-8"?>
<!-- Generator: Adobe Illustrator 16.0.0, SVG Export Plug-In . SVG Version: 6.00 Build 0)  -->
<!DOCTYPE svg PUBLIC "-//W3C//DTD SVG 1.1//EN" "http://www.w3.org/Graphics/SVG/1.1/DTD/svg11.dtd">
<svg version="1.1" id="Layer_1" xmlns="http://www.w3.org/2000/svg" xmlns:xlink="http://www.w3.org/1999/xlink" x="0px" y="0px"
	 width="28px" height="28px" viewBox="0 0 28 28" enable-background="new 0 0 28 28" xml:space="preserve">
<g>
	<g>
		<path d="M22.943,5.692H5.841c-1.005,0-1.824,0.818-1.824,1.824v12.968c0,1.006,0.818,1.824,1.824,1.824h17.102
			c1.007,0,1.824-0.818,1.824-1.824V7.516C24.768,6.511,23.95,5.692,22.943,5.692z M23.552,20.484c0,0.336-0.272,0.607-0.608,0.607
			H5.841c-0.335,0-0.608-0.271-0.608-0.607v-9.929h18.318V20.484z M23.552,9.34H5.233V7.516c0-0.335,0.273-0.608,0.608-0.608h17.102
			c0.336,0,0.608,0.273,0.608,0.608V9.34z"/>
	</g>
</g>
<g>
	<g>
		<path d="M14.23,12.217h-1.135c-0.336,0-0.608,0.272-0.608,0.608s0.272,0.608,0.608,0.608h1.135c0.492,0,0.892,0.399,0.892,0.892
			c0,0.492-0.399,0.892-0.892,0.892h-0.446c-0.336,0-0.608,0.271-0.608,0.607v1.418c0,0.336,0.272,0.607,0.608,0.607
			c0.336,0,0.608-0.271,0.608-0.607v-0.816c1.087-0.082,1.945-0.994,1.945-2.101C16.338,13.163,15.393,12.217,14.23,12.217z"/>
	</g>
</g>
<g>
	<g>
		<circle cx="13.785" cy="18.985" r="0.608"/>
	</g>
</g>
</svg>
