<?xml version="1.0" encoding="utf-8"?>
<!-- Generator: Adobe Illustrator 16.0.0, SVG Export Plug-In . SVG Version: 6.00 Build 0)  -->
<!DOCTYPE svg PUBLIC "-//W3C//DTD SVG 1.1//EN" "http://www.w3.org/Graphics/SVG/1.1/DTD/svg11.dtd">
<svg version="1.1" id="Layer_1" xmlns="http://www.w3.org/2000/svg" xmlns:xlink="http://www.w3.org/1999/xlink" x="0px" y="0px"
	 width="28px" height="28px" viewBox="0 0 28 28" enable-background="new 0 0 28 28" xml:space="preserve">
<path opacity="0.5" d="M22.073,21.885c0,0.453,0,0.907,0,1.363c-5.382,0-10.764,0-16.146,0c0-0.456,0-0.91,0-1.363
	c0.506-0.35,0.993-0.732,1.524-1.039c0.586-0.336,0.895-0.766,0.752-1.457c-0.019-0.092,0.013-0.191,0.025-0.322
	c0.888,0,1.754,0,2.615,0c0-0.242,0-0.448,0-0.678c-0.167,0-0.304,0-0.441,0c-1.314,0-2.627-0.006-3.941,0.004
	c-0.333,0.002-0.472-0.113-0.471-0.467c0.008-4.029,0.003-8.059,0.012-12.088c0-0.16,0.1-0.319,0.153-0.478
	c5.205,0,10.41,0,15.615,0c0.06,0.157,0.17,0.313,0.17,0.471c0.009,4.027,0.004,8.054,0.012,12.081
	c0.001,0.367-0.146,0.484-0.498,0.48c-1.301-0.012-2.602-0.004-3.901-0.004c-0.134,0-0.268,0-0.396,0c0,0.26,0,0.465,0,0.707
	c0.895,0,1.759,0,2.646,0c0,0.35-0.009,0.663,0.005,0.978c0.006,0.101,0.041,0.239,0.112,0.291
	C20.63,20.879,21.354,21.38,22.073,21.885z M13.978,6.183c-2.135,0-4.27,0-6.404,0c-0.493,0-0.509,0.018-0.509,0.514
	c0,3.41,0,6.82,0,10.23c0,0.537,0.014,0.552,0.556,0.552c4.218,0,8.436,0,12.654,0c0.521,0,0.559-0.037,0.559-0.56
	c0.001-3.397,0.001-6.795,0-10.192c0-0.51-0.033-0.544-0.527-0.544C18.195,6.183,16.086,6.183,13.978,6.183z M21.148,21.866
	c0.012-0.022,0.022-0.046,0.035-0.068c-0.519-0.372-1.049-0.729-1.552-1.12c-0.284-0.224-0.577-0.3-0.937-0.299
	c-2.863,0.012-5.729,0.043-8.592-0.014c-0.935-0.018-1.722,0.152-2.411,0.789c-0.267,0.248-0.586,0.438-0.958,0.712
	C11.614,21.866,16.381,21.866,21.148,21.866z"/>
</svg>
