<?xml version="1.0" encoding="utf-8"?>
<!-- Generator: Adobe Illustrator 16.0.0, SVG Export Plug-In . SVG Version: 6.00 Build 0)  -->
<!DOCTYPE svg PUBLIC "-//W3C//DTD SVG 1.1//EN" "http://www.w3.org/Graphics/SVG/1.1/DTD/svg11.dtd">
<svg version="1.1" id="Layer_1" xmlns="http://www.w3.org/2000/svg" xmlns:xlink="http://www.w3.org/1999/xlink" x="0px" y="0px"
	 width="24px" height="24px" viewBox="0 0 24 24" enable-background="new 0 0 24 24" xml:space="preserve">
<path fill="#4D4E4E" d="M13.701,7.438c0.048-0.273,0.076-0.582,0.076-0.907c0-1.121-0.32-2.029-0.714-2.029
	c-0.017,0-0.031,0.002-0.047,0.005c0.022-0.083,0.034-0.167,0.034-0.253c0-0.834-1.046-1.51-2.341-1.515
	c-0.291-0.113-0.596-0.172-0.909-0.172c-0.038,0-0.073,0.001-0.11,0.003C9.646,2.566,9.598,2.565,9.552,2.565
	c-2.041,0-3.694,1.541-3.694,3.439c0,0.465,0.099,0.908,0.279,1.313C6.131,7.359,6.127,7.402,6.124,7.445
	C6.076,7.438,6.029,7.439,5.983,7.45C5.538,7.548,5.354,8.425,5.571,9.408c0.183,0.826,0.591,1.463,0.979,1.589
	c0.635,1.747,1.852,2.929,3.251,2.929c1.406,0,2.63-1.195,3.26-2.958c0.394-0.117,0.808-0.759,0.991-1.592
	C14.259,8.439,14.102,7.599,13.701,7.438z"/>
<ellipse fill="#4D4E4E" cx="18.162" cy="16.822" rx="5.138" ry="5.252"/>
<path fill="#4D4E4E" d="M6.708,12.683c0,0-5.137,0.924-5.824,5.206c0,0-1.277,1.923,2.912,2.419c0,0,6.087,0.786,9.916,0.228
	c0,0-3.24-3.697,0-7.525l-0.817-0.327C12.894,12.683,9.948,16.609,6.708,12.683z"/>
<path fill="#FFFFFF" d="M20.9,19.014l-2.003-1.88c0.344-0.418,0.549-0.954,0.549-1.536c0-1.338-1.084-2.421-2.421-2.421
	c-1.338,0-2.421,1.083-2.421,2.421c0,1.337,1.083,2.42,2.421,2.42c0.435,0,0.844-0.115,1.198-0.316l2.077,1.953
	c0.176,0.164,0.454,0.154,0.618-0.021C21.085,19.457,21.075,19.181,20.9,19.014z M17.051,17.234c-0.886,0-1.604-0.718-1.604-1.604
	s0.718-1.604,1.604-1.604s1.603,0.718,1.603,1.604S17.937,17.234,17.051,17.234z"/>
</svg>
