<?xml version="1.0" encoding="utf-8"?>
<!-- Generator: Adobe Illustrator 16.0.0, SVG Export Plug-In . SVG Version: 6.00 Build 0)  -->
<!DOCTYPE svg PUBLIC "-//W3C//DTD SVG 1.1//EN" "http://www.w3.org/Graphics/SVG/1.1/DTD/svg11.dtd">
<svg version="1.1" id="Layer_1" xmlns="http://www.w3.org/2000/svg" xmlns:xlink="http://www.w3.org/1999/xlink" x="0px" y="0px"
	 width="28px" height="28px" viewBox="0 0 28 28" enable-background="new 0 0 28 28" xml:space="preserve">
<path opacity="0.5" enable-background="new    " d="M14.566,23.173c-1.628,0-3.255,0.003-4.884-0.001
	c-1.944-0.008-3.013-1.152-3.01-3.221c0.002-1.585,0.18-3.137,0.834-4.583C8.015,14.246,8.8,13.49,10,13.282
	c0.394-0.068,0.718,0.004,1.055,0.231c0.526,0.355,1.06,0.717,1.632,0.974c1.599,0.719,3.147,0.488,4.625-0.421
	c0.131-0.079,0.25-0.175,0.381-0.255c0.428-0.261,0.781-0.663,1.373-0.547c0.791,0.156,1.519,0.438,1.99,1.143
	c0.367,0.548,0.7,1.151,0.911,1.782c0.462,1.375,0.583,2.814,0.503,4.27c-0.092,1.537-1.128,2.65-2.574,2.688
	c-1.775,0.047-3.556,0.015-5.33,0.015C14.566,23.163,14.566,23.168,14.566,23.173z"/>
<path opacity="0.5" enable-background="new    " d="M18.887,9.418c-0.005,2.57-1.904,4.579-4.33,4.576
	c-2.39-0.002-4.3-2.061-4.292-4.627c0.007-2.519,1.932-4.543,4.322-4.542C17.014,4.826,18.893,6.832,18.887,9.418z"/>
</svg>
