<?xml version="1.0" encoding="utf-8"?>
<!-- Generator: Adobe Illustrator 16.0.0, SVG Export Plug-In . SVG Version: 6.00 Build 0)  -->
<!DOCTYPE svg PUBLIC "-//W3C//DTD SVG 1.1//EN" "http://www.w3.org/Graphics/SVG/1.1/DTD/svg11.dtd">
<svg version="1.1" id="Layer_1" xmlns="http://www.w3.org/2000/svg" xmlns:xlink="http://www.w3.org/1999/xlink" x="0px" y="0px"
	 width="20px" height="20px" viewBox="0 0 20 20" enable-background="new 0 0 20 20" xml:space="preserve">
<g>
	<path fill="#5E5F5F" d="M10,3.672c-3.668,0-6.643,2.974-6.643,6.643c0,3.669,2.975,6.644,6.643,6.644
		c3.667,0,6.642-2.977,6.642-6.644C16.642,6.646,13.667,3.672,10,3.672z M10,15.619c-2.929,0-5.305-2.374-5.305-5.304
		S7.071,5.01,10,5.01c2.93,0,5.305,2.375,5.305,5.305S12.93,15.619,10,15.619z"/>
	<polygon fill="#5E5F5F" points="9.978,14.714 13.376,7.092 13.254,7.039 11.61,7.039 8.189,14.714 	"/>
	<polygon fill="#5E5F5F" points="10,10.876 10.229,10.876 8.73,7.039 6.977,7.039 10,14.784 	"/>
</g>
</svg>
